<svg xmlns="http://www.w3.org/2000/svg" xmlns:xlink="http://www.w3.org/1999/xlink" width="500" zoomAndPan="magnify" viewBox="0 0 375 374.999991" height="500" preserveAspectRatio="xMidYMid meet" version="1.0"><defs><clipPath id="bc33b0d018"><path d="M 62.386719 17 L 312.886719 17 L 312.886719 375 L 62.386719 375 Z M 62.386719 17 " clip-rule="nonzero"/></clipPath><clipPath id="68cb9b8b21"><path d="M 80 17 L 312.886719 17 L 312.886719 322 L 80 322 Z M 80 17 " clip-rule="nonzero"/></clipPath><clipPath id="548035567f"><path d="M 62.386719 160 L 81 160 L 81 250 L 62.386719 250 Z M 62.386719 160 " clip-rule="nonzero"/></clipPath><clipPath id="f48b3b5815"><path d="M 294 178 L 312.886719 178 L 312.886719 268 L 294 268 Z M 294 178 " clip-rule="nonzero"/></clipPath><clipPath id="8f1eefde30"><path d="M 81 21 L 86.25 21 L 86.25 26 L 81 26 Z M 81 21 " clip-rule="nonzero"/></clipPath><clipPath id="39567de01d"><path d="M 17 81 L 22 81 L 22 86.25 L 17 86.25 Z M 17 81 " clip-rule="nonzero"/></clipPath></defs><rect x="-37.5" width="450" fill="#ffffff" y="-37.499999" height="449.999989" fill-opacity="1"/><rect x="-37.5" width="450" fill="#ffffff" y="-37.499999" height="449.999989" fill-opacity="1"/><path fill="#160059" d="M 277.023438 0 L 294.898438 0 L 294.898438 17.855469 L 277.023438 17.855469 Z M 277.023438 0 " fill-opacity="1" fill-rule="nonzero"/><g clip-path="url(#bc33b0d018)"><path fill="#160059" d="M 294.898438 178.570312 L 294.898438 160.714844 L 277.023438 160.714844 L 277.023438 125 L 259.144531 125 L 259.144531 53.570312 L 277.023438 53.570312 L 277.023438 17.855469 L 223.390625 17.855469 L 223.390625 35.714844 L 187.636719 35.714844 L 187.636719 53.570312 L 151.882812 53.570312 L 151.882812 71.429688 L 134.003906 71.429688 L 134.003906 89.285156 L 116.128906 89.285156 L 116.128906 107.144531 L 98.25 107.144531 L 98.25 125 L 80.375 125 L 80.375 160.714844 L 62.496094 160.714844 L 62.496094 250 L 80.375 250 L 80.375 285.714844 L 98.25 285.714844 L 98.25 303.570312 L 116.128906 303.570312 L 116.128906 321.429688 L 98.25 321.429688 L 98.25 339.285156 L 80.375 339.285156 L 80.375 375 L 151.882812 375 L 151.882812 357.144531 L 169.757812 357.144531 L 169.757812 339.285156 L 205.511719 339.285156 L 205.511719 357.144531 L 223.390625 357.144531 L 223.390625 375 L 294.898438 375 L 294.898438 339.285156 L 277.023438 339.285156 L 277.023438 321.429688 L 259.144531 321.429688 L 259.144531 303.570312 L 277.023438 303.570312 L 277.023438 285.714844 L 294.898438 285.714844 L 294.898438 267.855469 L 312.777344 267.855469 L 312.777344 178.570312 Z M 294.898438 178.570312 " fill-opacity="1" fill-rule="nonzero"/></g><path fill="#f34327" d="M 277.023438 0 L 294.898438 0 L 294.898438 17.855469 L 277.023438 17.855469 Z M 277.023438 0 " fill-opacity="1" fill-rule="nonzero"/><g clip-path="url(#68cb9b8b21)"><path fill="#f34327" d="M 294.898438 178.570312 L 294.898438 160.714844 L 277.023438 160.714844 L 277.023438 125 L 259.144531 125 L 259.144531 53.570312 L 277.023438 53.570312 L 277.023438 17.855469 L 223.390625 17.855469 L 223.390625 35.714844 L 187.636719 35.714844 L 187.636719 53.570312 L 151.882812 53.570312 L 151.882812 71.429688 L 134.003906 71.429688 L 134.003906 89.285156 L 116.128906 89.285156 L 116.128906 107.144531 L 98.25 107.144531 L 98.25 160.714844 L 80.375 160.714844 L 80.375 250 L 98.25 250 L 98.25 285.714844 L 116.128906 285.714844 L 116.128906 303.570312 L 151.882812 303.570312 L 151.882812 321.429688 L 223.390625 321.429688 L 223.390625 303.570312 L 259.144531 303.570312 L 259.144531 285.714844 L 277.023438 285.714844 L 277.023438 267.855469 L 312.777344 267.855469 L 312.777344 178.570312 Z M 294.898438 178.570312 " fill-opacity="1" fill-rule="nonzero"/></g><path fill="#ffb200" d="M 187.636719 89.285156 L 205.511719 89.285156 L 205.511719 107.144531 L 187.636719 107.144531 Z M 187.636719 89.285156 " fill-opacity="1" fill-rule="nonzero"/><path fill="#ffb200" d="M 223.390625 71.429688 L 241.269531 71.429688 L 241.269531 107.144531 L 223.390625 107.144531 Z M 223.390625 71.429688 " fill-opacity="1" fill-rule="nonzero"/><path fill="#ffb200" d="M 241.269531 142.855469 L 259.144531 142.855469 L 259.144531 160.714844 L 241.269531 160.714844 Z M 241.269531 142.855469 " fill-opacity="1" fill-rule="nonzero"/><path fill="#ffb200" d="M 151.882812 107.144531 L 223.390625 107.144531 L 223.390625 267.855469 L 151.882812 267.855469 Z M 151.882812 107.144531 " fill-opacity="1" fill-rule="nonzero"/><path fill="#ffb200" d="M 134.003906 125 L 169.757812 125 L 169.757812 285.714844 L 134.003906 285.714844 Z M 134.003906 125 " fill-opacity="1" fill-rule="nonzero"/><path fill="#ffb200" d="M 116.128906 196.429688 L 134.003906 196.429688 L 134.003906 250 L 116.128906 250 Z M 116.128906 196.429688 " fill-opacity="1" fill-rule="nonzero"/><path fill="#ffb200" d="M 116.128906 160.714844 L 134.003906 160.714844 L 134.003906 178.570312 L 116.128906 178.570312 Z M 116.128906 160.714844 " fill-opacity="1" fill-rule="nonzero"/><path fill="#ffb200" d="M 205.511719 160.714844 L 241.269531 160.714844 L 241.269531 285.714844 L 205.511719 285.714844 Z M 205.511719 160.714844 " fill-opacity="1" fill-rule="nonzero"/><path fill="#ffb200" d="M 223.390625 178.570312 L 259.144531 178.570312 L 259.144531 267.855469 L 223.390625 267.855469 Z M 223.390625 178.570312 " fill-opacity="1" fill-rule="nonzero"/><path fill="#ffb200" d="M 259.144531 196.429688 L 277.023438 196.429688 L 277.023438 250 L 259.144531 250 Z M 259.144531 196.429688 " fill-opacity="0.5" fill-rule="nonzero"/><path fill="#ffb200" d="M 116.128906 178.570312 L 134.003906 178.570312 L 134.003906 196.429688 L 116.128906 196.429688 Z M 116.128906 178.570312 " fill-opacity="0.5" fill-rule="nonzero"/><path fill="#ffb200" d="M 116.128906 250 L 134.003906 250 L 134.003906 267.855469 L 116.128906 267.855469 Z M 116.128906 250 " fill-opacity="0.5" fill-rule="nonzero"/><path fill="#ffb200" d="M 98.25 232.144531 L 116.128906 232.144531 L 116.128906 250 L 98.25 250 Z M 98.25 232.144531 " fill-opacity="0.5" fill-rule="nonzero"/><path fill="#ffb200" d="M 98.25 196.429688 L 116.128906 196.429688 L 116.128906 214.285156 L 98.25 214.285156 Z M 98.25 196.429688 " fill-opacity="0.5" fill-rule="nonzero"/><path fill="#ffb200" d="M 205.511719 71.429688 L 223.390625 71.429688 L 223.390625 89.285156 L 205.511719 89.285156 Z M 205.511719 71.429688 " fill-opacity="0.5" fill-rule="nonzero"/><path fill="#ffb200" d="M 223.390625 53.570312 L 241.269531 53.570312 L 241.269531 71.429688 L 223.390625 71.429688 Z M 223.390625 53.570312 " fill-opacity="0.5" fill-rule="nonzero"/><path fill="#ffb200" d="M 169.757812 89.285156 L 187.636719 89.285156 L 187.636719 107.144531 L 169.757812 107.144531 Z M 169.757812 89.285156 " fill-opacity="0.5" fill-rule="nonzero"/><path fill="#ffb200" d="M 116.128906 125 L 134.003906 125 L 134.003906 142.855469 L 116.128906 142.855469 Z M 116.128906 125 " fill-opacity="0.5" fill-rule="nonzero"/><path fill="#ffb200" d="M 98.25 160.714844 L 116.128906 160.714844 L 116.128906 178.570312 L 98.25 178.570312 Z M 98.25 160.714844 " fill-opacity="0.5" fill-rule="nonzero"/><path fill="#ffb200" d="M 134.003906 107.144531 L 151.882812 107.144531 L 151.882812 125 L 134.003906 125 Z M 134.003906 107.144531 " fill-opacity="0.5" fill-rule="nonzero"/><path fill="#ffb200" d="M 223.390625 125 L 241.269531 125 L 241.269531 142.855469 L 223.390625 142.855469 Z M 223.390625 125 " fill-opacity="0.5" fill-rule="nonzero"/><path fill="#ffb200" d="M 277.023438 178.570312 L 294.898438 178.570312 L 294.898438 196.429688 L 277.023438 196.429688 Z M 277.023438 178.570312 " fill-opacity="0.5" fill-rule="nonzero"/><path fill="#ffb200" d="M 259.144531 267.855469 L 277.023438 267.855469 L 277.023438 285.714844 L 259.144531 285.714844 Z M 259.144531 267.855469 " fill-opacity="0.5" fill-rule="nonzero"/><path fill="#ffb200" d="M 151.882812 267.855469 L 223.390625 267.855469 L 223.390625 303.570312 L 151.882812 303.570312 Z M 151.882812 267.855469 " fill-opacity="1" fill-rule="nonzero"/><path fill="#160059" d="M 187.636719 35.714844 L 223.390625 35.714844 L 223.390625 53.570312 L 187.636719 53.570312 Z M 187.636719 35.714844 " fill-opacity="0.5" fill-rule="nonzero"/><path fill="#160059" d="M 151.882812 53.570312 L 187.636719 53.570312 L 187.636719 71.429688 L 151.882812 71.429688 Z M 151.882812 53.570312 " fill-opacity="0.5" fill-rule="nonzero"/><path fill="#160059" d="M 134.003906 71.429688 L 151.882812 71.429688 L 151.882812 89.285156 L 134.003906 89.285156 Z M 134.003906 71.429688 " fill-opacity="0.5" fill-rule="nonzero"/><path fill="#160059" d="M 223.390625 17.855469 L 223.390625 35.714844 L 259.144531 35.714844 L 259.144531 53.570312 L 277.023438 53.570312 L 277.023438 17.855469 Z M 223.390625 17.855469 " fill-opacity="0.5" fill-rule="nonzero"/><path fill="#160059" d="M 277.023438 0 L 294.898438 0 L 294.898438 17.855469 L 277.023438 17.855469 Z M 277.023438 0 " fill-opacity="0.5" fill-rule="nonzero"/><path fill="#160059" d="M 116.128906 89.285156 L 134.003906 89.285156 L 134.003906 107.144531 L 116.128906 107.144531 Z M 116.128906 89.285156 " fill-opacity="0.5" fill-rule="nonzero"/><path fill="#160059" d="M 98.25 107.144531 L 116.128906 107.144531 L 116.128906 125 L 98.25 125 Z M 98.25 107.144531 " fill-opacity="0.5" fill-rule="nonzero"/><path fill="#160059" d="M 80.375 125 L 98.25 125 L 98.25 160.714844 L 80.375 160.714844 Z M 80.375 125 " fill-opacity="1" fill-rule="nonzero"/><g clip-path="url(#548035567f)"><path fill="#160059" d="M 62.496094 160.714844 L 80.375 160.714844 L 80.375 250 L 62.496094 250 Z M 62.496094 160.714844 " fill-opacity="1" fill-rule="nonzero"/></g><path fill="#160059" d="M 80.375 250 L 98.25 250 L 98.25 285.714844 L 80.375 285.714844 Z M 80.375 250 " fill-opacity="1" fill-rule="nonzero"/><path fill="#160059" d="M 98.25 285.714844 L 116.128906 285.714844 L 116.128906 303.570312 L 98.25 303.570312 Z M 98.25 285.714844 " fill-opacity="1" fill-rule="nonzero"/><path fill="#160059" d="M 116.128906 303.570312 L 151.882812 303.570312 L 151.882812 321.429688 L 116.128906 321.429688 Z M 116.128906 303.570312 " fill-opacity="1" fill-rule="nonzero"/><path fill="#160059" d="M 223.390625 303.570312 L 259.144531 303.570312 L 259.144531 321.429688 L 223.390625 321.429688 Z M 223.390625 303.570312 " fill-opacity="1" fill-rule="nonzero"/><path fill="#160059" d="M 241.269531 53.570312 L 259.144531 53.570312 L 259.144531 125 L 241.269531 125 Z M 241.269531 53.570312 " fill-opacity="0.5" fill-rule="nonzero"/><path fill="#160059" d="M 259.144531 125 L 277.023438 125 L 277.023438 160.714844 L 259.144531 160.714844 Z M 259.144531 125 " fill-opacity="0.5" fill-rule="nonzero"/><path fill="#160059" d="M 277.023438 160.714844 L 294.898438 160.714844 L 294.898438 178.570312 L 277.023438 178.570312 Z M 277.023438 160.714844 " fill-opacity="0.5" fill-rule="nonzero"/><g clip-path="url(#f48b3b5815)"><path fill="#160059" d="M 294.898438 178.570312 L 312.777344 178.570312 L 312.777344 267.855469 L 294.898438 267.855469 Z M 294.898438 178.570312 " fill-opacity="0.5" fill-rule="nonzero"/></g><path fill="#160059" d="M 277.023438 267.855469 L 294.898438 267.855469 L 294.898438 285.714844 L 277.023438 285.714844 Z M 277.023438 267.855469 " fill-opacity="1" fill-rule="nonzero"/><path fill="#160059" d="M 259.144531 285.714844 L 277.023438 285.714844 L 277.023438 303.570312 L 259.144531 303.570312 Z M 259.144531 285.714844 " fill-opacity="1" fill-rule="nonzero"/><path fill="#f8e374" d="M 134.003906 232.144531 L 151.882812 232.144531 L 151.882812 250 L 134.003906 250 Z M 134.003906 232.144531 " fill-opacity="1" fill-rule="nonzero"/><path fill="#f8e374" d="M 241.269531 250 L 259.144531 250 L 259.144531 267.855469 L 241.269531 267.855469 Z M 241.269531 250 " fill-opacity="1" fill-rule="nonzero"/><path fill="#f8e374" d="M 151.882812 160.714844 L 169.757812 160.714844 L 169.757812 178.570312 L 151.882812 178.570312 Z M 151.882812 160.714844 " fill-opacity="1" fill-rule="nonzero"/><path fill="#f8e374" d="M 205.511719 142.855469 L 223.390625 142.855469 L 223.390625 160.714844 L 205.511719 160.714844 Z M 205.511719 142.855469 " fill-opacity="1" fill-rule="nonzero"/><path fill="#f8e374" d="M 169.757812 125 L 187.636719 125 L 187.636719 142.855469 L 169.757812 142.855469 Z M 169.757812 125 " fill-opacity="1" fill-rule="nonzero"/><path fill="#f8e374" d="M 187.636719 178.570312 L 205.511719 178.570312 L 205.511719 196.429688 L 187.636719 196.429688 Z M 187.636719 178.570312 " fill-opacity="1" fill-rule="nonzero"/><path fill="#f8e374" d="M 223.390625 250 L 241.269531 250 L 241.269531 232.144531 L 223.390625 232.144531 L 223.390625 196.429688 L 205.511719 196.429688 L 205.511719 214.285156 L 187.636719 214.285156 L 187.636719 196.429688 L 169.757812 196.429688 L 169.757812 214.285156 L 151.882812 214.285156 L 151.882812 232.144531 L 169.757812 232.144531 L 169.757812 250 L 151.882812 250 L 151.882812 267.855469 L 134.003906 267.855469 L 134.003906 285.714844 L 169.757812 285.714844 L 169.757812 303.570312 L 205.511719 303.570312 L 205.511719 285.714844 L 241.269531 285.714844 L 241.269531 267.855469 L 223.390625 267.855469 Z M 187.636719 267.855469 L 187.636719 250 L 205.511719 250 L 205.511719 267.855469 Z M 187.636719 267.855469 " fill-opacity="1" fill-rule="nonzero"/><path fill="#f34327" d="M 98.25 321.429688 L 169.757812 321.429688 L 169.757812 357.144531 L 98.25 357.144531 Z M 98.25 321.429688 " fill-opacity="1" fill-rule="nonzero"/><path fill="#f34327" d="M 205.511719 321.429688 L 277.023438 321.429688 L 277.023438 357.144531 L 205.511719 357.144531 Z M 205.511719 321.429688 " fill-opacity="1" fill-rule="nonzero"/><path fill="#f34327" d="M 80.375 339.285156 L 151.882812 339.285156 L 151.882812 375 L 80.375 375 Z M 80.375 339.285156 " fill-opacity="1" fill-rule="nonzero"/><path fill="#f34327" d="M 223.390625 339.285156 L 294.898438 339.285156 L 294.898438 375 L 223.390625 375 Z M 223.390625 339.285156 " fill-opacity="1" fill-rule="nonzero"/><path fill="#160059" d="M 98.25 321.429688 L 116.128906 321.429688 L 116.128906 339.285156 L 98.25 339.285156 Z M 98.25 321.429688 " fill-opacity="1" fill-rule="nonzero"/><path fill="#160059" d="M 80.375 339.285156 L 98.25 339.285156 L 98.25 375 L 80.375 375 Z M 80.375 339.285156 " fill-opacity="1" fill-rule="nonzero"/><path fill="#160059" d="M 80.375 357.144531 L 151.882812 357.144531 L 151.882812 375 L 80.375 375 Z M 80.375 357.144531 " fill-opacity="1" fill-rule="nonzero"/><path fill="#160059" d="M 205.511719 321.429688 L 151.882812 321.429688 L 151.882812 357.144531 L 169.757812 357.144531 L 169.757812 339.285156 L 205.511719 339.285156 L 205.511719 357.144531 L 223.390625 357.144531 L 223.390625 321.429688 Z M 205.511719 321.429688 " fill-opacity="1" fill-rule="nonzero"/><path fill="#160059" d="M 223.390625 357.144531 L 294.898438 357.144531 L 294.898438 375 L 223.390625 375 Z M 223.390625 357.144531 " fill-opacity="1" fill-rule="nonzero"/><path fill="#160059" d="M 277.023438 339.285156 L 294.898438 339.285156 L 294.898438 375 L 277.023438 375 Z M 277.023438 339.285156 " fill-opacity="1" fill-rule="nonzero"/><path fill="#160059" d="M 259.144531 321.429688 L 277.023438 321.429688 L 277.023438 339.285156 L 259.144531 339.285156 Z M 259.144531 321.429688 " fill-opacity="1" fill-rule="nonzero"/><path fill="#160059" d="M 205.511719 321.429688 L 205.511719 339.285156 L 223.390625 339.285156 L 223.390625 357.144531 L 241.269531 357.144531 L 241.269531 339.285156 L 259.144531 339.285156 L 259.144531 321.429688 Z M 205.511719 321.429688 " fill-opacity="0.5" fill-rule="nonzero"/><path fill="#160059" d="M 116.128906 321.429688 L 116.128906 339.285156 L 134.003906 339.285156 L 134.003906 357.144531 L 151.882812 357.144531 L 151.882812 339.285156 L 169.757812 339.285156 L 169.757812 321.429688 Z M 116.128906 321.429688 " fill-opacity="0.5" fill-rule="nonzero"/><path fill="#160059" d="M 205.511719 196.429688 L 241.269531 196.429688 L 241.269531 214.285156 L 205.511719 214.285156 Z M 205.511719 196.429688 " fill-opacity="1" fill-rule="nonzero"/><path fill="#160059" d="M 134.003906 196.429688 L 169.757812 196.429688 L 169.757812 214.285156 L 134.003906 214.285156 Z M 134.003906 196.429688 " fill-opacity="1" fill-rule="nonzero"/><path fill="#160059" d="M 116.128906 214.285156 L 134.003906 214.285156 L 134.003906 232.144531 L 116.128906 232.144531 Z M 116.128906 214.285156 " fill-opacity="1" fill-rule="nonzero"/><path fill="#160059" d="M 241.269531 214.285156 L 259.144531 214.285156 L 259.144531 232.144531 L 241.269531 232.144531 Z M 241.269531 214.285156 " fill-opacity="1" fill-rule="nonzero"/><path fill="#ff1200" d="M 205.511719 214.285156 L 223.390625 214.285156 L 223.390625 232.144531 L 205.511719 232.144531 Z M 205.511719 214.285156 " fill-opacity="1" fill-rule="nonzero"/><path fill="#ff1200" d="M 151.882812 214.285156 L 169.757812 214.285156 L 169.757812 232.144531 L 151.882812 232.144531 Z M 151.882812 214.285156 " fill-opacity="1" fill-rule="nonzero"/><path fill="#f9ebaa" d="M 60.375 17.25 L 73.3125 17.25 L 73.3125 30.1875 L 60.375 30.1875 Z M 60.375 17.25 " fill-opacity="1" fill-rule="nonzero"/><path fill="#f9ebaa" d="M 12.9375 56.0625 L 25.875 56.0625 L 25.875 69 L 12.9375 69 Z M 12.9375 56.0625 " fill-opacity="1" fill-rule="nonzero"/><path fill="#f6db6e" d="M 69 8.625 L 64.6875 8.625 L 64.6875 21.5625 L 56.0625 21.5625 L 56.0625 25.875 L 64.6875 25.875 L 64.6875 38.8125 L 69 38.8125 L 69 25.875 L 77.625 25.875 L 77.625 21.5625 L 69 21.5625 Z M 69 8.625 " fill-opacity="1" fill-rule="nonzero"/><g clip-path="url(#8f1eefde30)"><path fill="#f6db6e" d="M 81.9375 21.5625 L 86.25 21.5625 L 86.25 25.875 L 81.9375 25.875 Z M 81.9375 21.5625 " fill-opacity="1" fill-rule="nonzero"/></g><path fill="#f6db6e" d="M 47.4375 21.5625 L 51.75 21.5625 L 51.75 25.875 L 47.4375 25.875 Z M 47.4375 21.5625 " fill-opacity="1" fill-rule="nonzero"/><path fill="#f6db6e" d="M 64.6875 0 L 69 0 L 69 4.3125 L 64.6875 4.3125 Z M 64.6875 0 " fill-opacity="1" fill-rule="nonzero"/><path fill="#f6db6e" d="M 64.6875 43.125 L 69 43.125 L 69 47.4375 L 64.6875 47.4375 Z M 64.6875 43.125 " fill-opacity="1" fill-rule="nonzero"/><path fill="#f6db6e" d="M 21.5625 47.4375 L 17.25 47.4375 L 17.25 60.375 L 8.625 60.375 L 8.625 64.6875 L 17.25 64.6875 L 17.25 77.625 L 21.5625 77.625 L 21.5625 64.6875 L 30.1875 64.6875 L 30.1875 60.375 L 21.5625 60.375 Z M 21.5625 47.4375 " fill-opacity="1" fill-rule="nonzero"/><path fill="#f6db6e" d="M 34.5 60.375 L 38.8125 60.375 L 38.8125 64.6875 L 34.5 64.6875 Z M 34.5 60.375 " fill-opacity="1" fill-rule="nonzero"/><path fill="#f6db6e" d="M 0 60.375 L 4.3125 60.375 L 4.3125 64.6875 L 0 64.6875 Z M 0 60.375 " fill-opacity="1" fill-rule="nonzero"/><path fill="#f6db6e" d="M 17.25 38.8125 L 21.5625 38.8125 L 21.5625 43.125 L 17.25 43.125 Z M 17.25 38.8125 " fill-opacity="1" fill-rule="nonzero"/><g clip-path="url(#39567de01d)"><path fill="#f6db6e" d="M 17.25 81.9375 L 21.5625 81.9375 L 21.5625 86.25 L 17.25 86.25 Z M 17.25 81.9375 " fill-opacity="1" fill-rule="nonzero"/></g></svg>